<?xml version="1.0" encoding="UTF-8" standalone="no"?>
<svg
   xmlns:dc="http://purl.org/dc/elements/1.1/"
   xmlns:cc="http://creativecommons.org/ns#"
   xmlns:rdf="http://www.w3.org/1999/02/22-rdf-syntax-ns#"
   xmlns:svg="http://www.w3.org/2000/svg"
   xmlns="http://www.w3.org/2000/svg"
   xmlns:sodipodi="http://sodipodi.sourceforge.net/DTD/sodipodi-0.dtd"
   xmlns:inkscape="http://www.inkscape.org/namespaces/inkscape"
   version="1.0"
   width="3.0999999in"
   height="2.5in"
   viewBox="1119 1339 3691 3022"
   id="svg2"
   sodipodi:docname="Frequency_reuse.svg"
   inkscape:version="1.0.1 (3bc2e813f5, 2020-09-07)">
  <metadata
     id="metadata885">
    <rdf:RDF>
      <cc:Work
         rdf:about="">
        <dc:format>image/svg+xml</dc:format>
        <dc:type
           rdf:resource="http://purl.org/dc/dcmitype/StillImage" />
      </cc:Work>
    </rdf:RDF>
  </metadata>
  <sodipodi:namedview
     pagecolor="#ffffff"
     bordercolor="#666666"
     borderopacity="1"
     objecttolerance="10"
     gridtolerance="10"
     guidetolerance="10"
     inkscape:pageopacity="0"
     inkscape:pageshadow="2"
     inkscape:window-width="1902"
     inkscape:window-height="849"
     id="namedview883"
     showgrid="false"
     inkscape:zoom="3.3131721"
     inkscape:cx="148.8"
     inkscape:cy="107.92698"
     inkscape:window-x="0"
     inkscape:window-y="0"
     inkscape:window-maximized="0"
     inkscape:current-layer="svg2" />
  <defs
     id="defs103" />
  <polygon
     points="3225,2250 2705,2550 2705,3150 3225,3450 3744,3150 3744,2550 3225,2250 "
     style="fill:#f6d5ff;stroke:#000000;stroke-width:8;stroke-linecap:butt;stroke-linejoin:miter"
     id="polygon80" />
  <polygon
     points="3755,3150 3236,3450 3236,4050 3755,4350 4275,4050 4275,3450 3755,3150 "
     style="fill:#d5f6ff;stroke:#000000;stroke-width:8;stroke-linecap:butt;stroke-linejoin:miter"
     id="polygon78" />
  <polygon
     points="2700,1350 2180,1650 2180,2250 2700,2550 3219,2250 3219,1650 2700,1350 "
     style="fill:#d5f6ff;stroke:#000000;stroke-width:8;stroke-linecap:butt;stroke-linejoin:miter"
     id="polygon72" />
  <polygon
     points="4280,2250 3761,2550 3761,3150 4280,3450 4800,3150 4800,2550 4280,2250 "
     style="fill:#d7f4e3;stroke:#000000;stroke-width:8;stroke-linecap:butt;stroke-linejoin:miter"
     id="polygon76" />
  <polygon
     points="2175,2250 1655,2550 1655,3150 2175,3450 2694,3150 2694,2550 2175,2250 "
     style="fill:#d7f4d7;stroke:#000000;stroke-width:8;stroke-linecap:butt;stroke-linejoin:miter"
     id="polygon82" />
  <polygon
     points="2700,3150 2180,3450 2180,4050 2700,4350 3219,4050 3219,3450 2700,3150 "
     style="fill:#ffe6d5;stroke:#000000;stroke-width:8;stroke-linecap:butt;stroke-linejoin:miter"
     id="polygon84" />
  <polygon
     points="3750,1350 3230,1650 3230,2250 3750,2550 4269,2250 4269,1650 3750,1350 "
     style="fill:#ffe6d5;stroke:#000000;stroke-width:8;stroke-linecap:butt;stroke-linejoin:miter"
     id="polygon74" />
  <polygon
     points="1650,1350 1130,1650 1130,2250 1650,2550 2169,2250 2169,1650 1650,1350 "
     style="fill:#ffe6d5;stroke:#000000;stroke-width:8;stroke-linecap:butt;stroke-linejoin:miter"
     id="polygon70" />
  <polygon
     points="1650,1650 1500,2100 1650,2175 1799,2100 1650,1650 "
     style="fill:none;stroke:#000000;stroke-width:8;stroke-linecap:butt;stroke-linejoin:miter"
     id="polygon6" />
  <polyline
     id="polyline8"
     style="fill:none;stroke:#000000;stroke-width:8;stroke-linecap:butt;stroke-linejoin:miter"
     points="1650,1650 1650,2175 " />
  <polyline
     id="polyline10"
     style="fill:none;stroke:#000000;stroke-width:8;stroke-linecap:butt;stroke-linejoin:miter"
     points="1518,2025 1650,2081 1781,2025 " />
  <polyline
     id="polyline12"
     style="fill:none;stroke:#000000;stroke-width:8;stroke-linecap:butt;stroke-linejoin:miter"
     points="1556,1912 1650,1950 1743,1912 " />
  <polygon
     points="2700,1650 2550,2100 2700,2175 2849,2100 2700,1650 "
     style="fill:none;stroke:#000000;stroke-width:8;stroke-linecap:butt;stroke-linejoin:miter"
     id="polygon14" />
  <polyline
     id="polyline16"
     style="fill:none;stroke:#000000;stroke-width:8;stroke-linecap:butt;stroke-linejoin:miter"
     points="2700,1650 2700,2175 " />
  <polyline
     id="polyline18"
     style="fill:none;stroke:#000000;stroke-width:8;stroke-linecap:butt;stroke-linejoin:miter"
     points="2568,2025 2700,2081 2831,2025 " />
  <polyline
     id="polyline20"
     style="fill:none;stroke:#000000;stroke-width:8;stroke-linecap:butt;stroke-linejoin:miter"
     points="2606,1912 2700,1950 2793,1912 " />
  <polygon
     points="3750,1650 3600,2100 3750,2175 3899,2100 3750,1650 "
     style="fill:none;stroke:#000000;stroke-width:8;stroke-linecap:butt;stroke-linejoin:miter"
     id="polygon22" />
  <polyline
     id="polyline24"
     style="fill:none;stroke:#000000;stroke-width:8;stroke-linecap:butt;stroke-linejoin:miter"
     points="3750,1650 3750,2175 " />
  <polyline
     id="polyline26"
     style="fill:none;stroke:#000000;stroke-width:8;stroke-linecap:butt;stroke-linejoin:miter"
     points="3618,2025 3750,2081 3881,2025 " />
  <polyline
     id="polyline28"
     style="fill:none;stroke:#000000;stroke-width:8;stroke-linecap:butt;stroke-linejoin:miter"
     points="3656,1912 3750,1950 3843,1912 " />
  <polygon
     points="4275,2550 4125,3000 4275,3075 4424,3000 4275,2550 "
     style="fill:none;stroke:#000000;stroke-width:8;stroke-linecap:butt;stroke-linejoin:miter"
     id="polygon30" />
  <polyline
     id="polyline32"
     style="fill:none;stroke:#000000;stroke-width:8;stroke-linecap:butt;stroke-linejoin:miter"
     points="4275,2550 4275,3075 " />
  <polyline
     id="polyline34"
     style="fill:none;stroke:#000000;stroke-width:8;stroke-linecap:butt;stroke-linejoin:miter"
     points="4143,2925 4275,2981 4406,2925 " />
  <polyline
     id="polyline36"
     style="fill:none;stroke:#000000;stroke-width:8;stroke-linecap:butt;stroke-linejoin:miter"
     points="4181,2812 4275,2850 4368,2812 " />
  <polygon
     points="3750,3450 3600,3900 3750,3975 3899,3900 3750,3450 "
     style="fill:none;stroke:#000000;stroke-width:8;stroke-linecap:butt;stroke-linejoin:miter"
     id="polygon38" />
  <polyline
     id="polyline40"
     style="fill:none;stroke:#000000;stroke-width:8;stroke-linecap:butt;stroke-linejoin:miter"
     points="3750,3450 3750,3975 " />
  <polyline
     id="polyline42"
     style="fill:none;stroke:#000000;stroke-width:8;stroke-linecap:butt;stroke-linejoin:miter"
     points="3618,3825 3750,3881 3881,3825 " />
  <polyline
     id="polyline44"
     style="fill:none;stroke:#000000;stroke-width:8;stroke-linecap:butt;stroke-linejoin:miter"
     points="3656,3712 3750,3750 3843,3712 " />
  <polygon
     points="3225,2550 3075,3000 3225,3075 3374,3000 3225,2550 "
     style="fill:none;stroke:#000000;stroke-width:8;stroke-linecap:butt;stroke-linejoin:miter"
     id="polygon46" />
  <polyline
     id="polyline48"
     style="fill:none;stroke:#000000;stroke-width:8;stroke-linecap:butt;stroke-linejoin:miter"
     points="3225,2550 3225,3075 " />
  <polyline
     id="polyline50"
     style="fill:none;stroke:#000000;stroke-width:8;stroke-linecap:butt;stroke-linejoin:miter"
     points="3093,2925 3225,2981 3356,2925 " />
  <polyline
     id="polyline52"
     style="fill:none;stroke:#000000;stroke-width:8;stroke-linecap:butt;stroke-linejoin:miter"
     points="3131,2812 3225,2850 3318,2812 " />
  <polygon
     points="2175,2625 2025,3075 2175,3150 2324,3075 2175,2625 "
     style="fill:none;stroke:#000000;stroke-width:8;stroke-linecap:butt;stroke-linejoin:miter"
     id="polygon54" />
  <polyline
     id="polyline56"
     style="fill:none;stroke:#000000;stroke-width:8;stroke-linecap:butt;stroke-linejoin:miter"
     points="2175,2625 2175,3150 " />
  <polyline
     id="polyline58"
     style="fill:none;stroke:#000000;stroke-width:8;stroke-linecap:butt;stroke-linejoin:miter"
     points="2043,3000 2175,3056 2306,3000 " />
  <polyline
     id="polyline60"
     style="fill:none;stroke:#000000;stroke-width:8;stroke-linecap:butt;stroke-linejoin:miter"
     points="2081,2887 2175,2925 2268,2887 " />
  <polygon
     points="2700,3450 2550,3900 2700,3975 2849,3900 2700,3450 "
     style="fill:none;stroke:#000000;stroke-width:8;stroke-linecap:butt;stroke-linejoin:miter"
     id="polygon62" />
  <polyline
     id="polyline64"
     style="fill:none;stroke:#000000;stroke-width:8;stroke-linecap:butt;stroke-linejoin:miter"
     points="2700,3450 2700,3975 " />
  <polyline
     id="polyline66"
     style="fill:none;stroke:#000000;stroke-width:8;stroke-linecap:butt;stroke-linejoin:miter"
     points="2568,3825 2700,3881 2831,3825 " />
  <polyline
     id="polyline68"
     style="fill:none;stroke:#000000;stroke-width:8;stroke-linecap:butt;stroke-linejoin:miter"
     points="2606,3712 2700,3750 2793,3712 " />
  <text
     x="1875"
     y="2250"
     style="font-size:120px;font-style:normal;font-weight:normal;text-anchor:start;fill:#000000;stroke:#000000;stroke-width:0.025in;font-family:Times"
     id="text86"
     xml:space="preserve">F1</text>
  <text
     x="3975"
     y="2250"
     style="font-size:120px;font-style:normal;font-weight:normal;text-anchor:start;fill:#000000;stroke:#000000;stroke-width:0.025in;font-family:Times"
     id="text88"
     xml:space="preserve">F1</text>
  <text
     x="2850"
     y="4050"
     style="font-size:120px;font-style:normal;font-weight:normal;text-anchor:start;fill:#000000;stroke:#000000;stroke-width:0.025in;font-family:Times"
     id="text90"
     xml:space="preserve">F1</text>
  <text
     x="2925"
     y="2250"
     style="font-size:120px;font-style:normal;font-weight:normal;text-anchor:start;fill:#000000;stroke:#000000;stroke-width:0.025in;font-family:Times"
     id="text92"
     xml:space="preserve">F2</text>
  <text
     x="2400"
     y="3150"
     style="font-size:120px;font-style:normal;font-weight:normal;text-anchor:start;fill:#000000;stroke:#000000;stroke-width:0.025in;font-family:Times"
     id="text94"
     xml:space="preserve">F3</text>
  <text
     x="3450"
     y="3150"
     style="font-size:120px;font-style:normal;font-weight:normal;text-anchor:start;fill:#000000;stroke:#000000;stroke-width:0.025in;font-family:Times"
     id="text96"
     xml:space="preserve">F4</text>
  <text
     x="3975"
     y="4050"
     style="font-size:120px;font-style:normal;font-weight:normal;text-anchor:start;fill:#000000;stroke:#000000;stroke-width:0.025in;font-family:Times"
     id="text98"
     xml:space="preserve">F2</text>
  <text
     x="4500"
     y="3150"
     style="font-size:120px;font-style:normal;font-weight:normal;text-anchor:start;fill:#000000;stroke:#000000;stroke-width:0.025in;font-family:Times"
     id="text100"
     xml:space="preserve">F3</text>
</svg>
